<?xml version="1.0" ?><!DOCTYPE svg  PUBLIC '-//W3C//DTD SVG 1.1//EN'  'http://www.w3.org/Graphics/SVG/1.1/DTD/svg11.dtd'><svg enable-background="new 0 0 24 24" height="24px" id="Layer_1" version="1.1" viewBox="0 0 24 24" width="24px" xml:space="preserve" xmlns="http://www.w3.org/2000/svg" xmlns:xlink="http://www.w3.org/1999/xlink"><g><path d="M16.3,5C15.1,5,14,5.2,13,5.7c0,0-0.1,0.1-0.4,0.2c0.2-0.7,0.3-1.8-0.2-3.1C11.3,0.2,9.2,0,9.2,0S7.8,1.6,8.9,4.2   c0.1,0.4,0.3,0.7,0.5,0.9C8.9,5.1,8.5,5,8,5c-3.9,0-7,3.1-7,7c0,8,5.2,10.8,5.2,10.8S7.8,24,9,24c0.7,0,1.4-0.2,2-0.6   c0.6-0.4,1-0.4,1-0.4s0.5,0,1.1,0.4c0.6,0.3,1.4,0.6,2.2,0.6c1.4,0,3.1-1.2,3.1-1.2S23,20,23,12C23,8.1,20.5,5,16.3,5z M9.7,1.1   c0.5,0.2,1.3,0.8,1.8,2c0.5,1.3,0.3,2.2,0.1,2.8c-0.5-0.2-1.3-0.8-1.9-2C9.3,2.6,9.5,1.6,9.7,1.1z M16.8,21.4   c-0.5,0.3-0.9,0.6-1.5,0.6c-1.2,0-1.7-1-3.3-1c-1.5,0-1.9,1-3,1c-0.6,0-0.9-0.2-1.4-0.6C7.6,21.4,3,19,3,12c0-2.7,2.2-5,5-5   c1.1,0,2.2,0.4,3,1c0,0,0.3,0.3,1,0.3c0.6,0,1-0.3,1-0.3c1-0.6,2.1-1,3.3-1c3,0,4.5,2.3,4.5,5C20.8,19,16.8,21.4,16.8,21.4z"/><path d="M16,8v1c1.7,0,3,1.3,3,3h1C20,9.8,18.2,8,16,8z"/></g></svg>